<mxfile host="app.diagrams.net" modified="2024-10-28T14:18:03.536Z" agent="Mozilla/5.0 (Windows NT 10.0; Win64; x64) AppleWebKit/537.36 (KHTML, like Gecko) Chrome/129.0.0.0 Safari/537.36" etag="eqLgBHFxulksBpK_vDQR" version="24.3.1" type="device">
  <diagram name="Page-1" id="Hyu2FiOhPKoWLrh9sgtj">
    <mxGraphModel dx="1290" dy="522" grid="1" gridSize="10" guides="1" tooltips="1" connect="1" arrows="1" fold="1" page="1" pageScale="1" pageWidth="850" pageHeight="1100" math="0" shadow="0">
      <root>
        <mxCell id="0" />
        <mxCell id="1" parent="0" />
        <mxCell id="G4uQYzGirpi4hmAw0lq7-1" value="" style="whiteSpace=wrap;html=1;aspect=fixed;" vertex="1" parent="1">
          <mxGeometry x="60" y="60" width="200" height="200" as="geometry" />
        </mxCell>
        <mxCell id="G4uQYzGirpi4hmAw0lq7-2" value="&lt;font style=&quot;font-size: 24px;&quot;&gt;Algolia account&lt;/font&gt;" style="text;html=1;align=center;verticalAlign=middle;whiteSpace=wrap;rounded=0;" vertex="1" parent="1">
          <mxGeometry x="70" y="60" width="170" height="70" as="geometry" />
        </mxCell>
        <mxCell id="G4uQYzGirpi4hmAw0lq7-3" value="Data" style="shape=cylinder3;whiteSpace=wrap;html=1;boundedLbl=1;backgroundOutline=1;size=15;" vertex="1" parent="1">
          <mxGeometry x="125" y="130" width="60" height="80" as="geometry" />
        </mxCell>
        <mxCell id="G4uQYzGirpi4hmAw0lq7-4" value="" style="endArrow=classic;startArrow=classic;html=1;rounded=0;" edge="1" parent="1">
          <mxGeometry width="50" height="50" relative="1" as="geometry">
            <mxPoint x="280" y="160" as="sourcePoint" />
            <mxPoint x="520" y="160" as="targetPoint" />
          </mxGeometry>
        </mxCell>
        <mxCell id="G4uQYzGirpi4hmAw0lq7-5" value="API Get request to make searchbalk" style="text;html=1;align=center;verticalAlign=middle;whiteSpace=wrap;rounded=0;" vertex="1" parent="1">
          <mxGeometry x="270" y="130" width="150" height="10" as="geometry" />
        </mxCell>
        <mxCell id="G4uQYzGirpi4hmAw0lq7-6" value="Possible options shown in seach balk" style="text;html=1;align=center;verticalAlign=middle;whiteSpace=wrap;rounded=0;" vertex="1" parent="1">
          <mxGeometry x="380" y="170" width="140" height="40" as="geometry" />
        </mxCell>
        <mxCell id="G4uQYzGirpi4hmAw0lq7-7" value="" style="whiteSpace=wrap;html=1;aspect=fixed;" vertex="1" parent="1">
          <mxGeometry x="560" y="60" width="190" height="190" as="geometry" />
        </mxCell>
        <mxCell id="G4uQYzGirpi4hmAw0lq7-8" value="&lt;font style=&quot;font-size: 24px;&quot;&gt;React APP&lt;/font&gt;" style="text;html=1;align=center;verticalAlign=middle;whiteSpace=wrap;rounded=0;" vertex="1" parent="1">
          <mxGeometry x="570" y="60" width="170" height="70" as="geometry" />
        </mxCell>
        <mxCell id="G4uQYzGirpi4hmAw0lq7-9" value="Backend connection" style="ellipse;shape=cloud;whiteSpace=wrap;html=1;" vertex="1" parent="1">
          <mxGeometry x="640" y="130" width="100" height="70" as="geometry" />
        </mxCell>
        <mxCell id="G4uQYzGirpi4hmAw0lq7-10" value="Frontend searchbar" style="rhombus;whiteSpace=wrap;html=1;" vertex="1" parent="1">
          <mxGeometry x="560" y="130" width="80" height="80" as="geometry" />
        </mxCell>
        <mxCell id="G4uQYzGirpi4hmAw0lq7-11" value="User" style="shape=umlActor;verticalLabelPosition=bottom;verticalAlign=top;html=1;outlineConnect=0;" vertex="1" parent="1">
          <mxGeometry x="640" y="330" width="30" height="60" as="geometry" />
        </mxCell>
        <mxCell id="G4uQYzGirpi4hmAw0lq7-12" value="" style="endArrow=classic;html=1;rounded=0;" edge="1" parent="1">
          <mxGeometry width="50" height="50" relative="1" as="geometry">
            <mxPoint x="630" y="370" as="sourcePoint" />
            <mxPoint x="550" y="370" as="targetPoint" />
          </mxGeometry>
        </mxCell>
        <mxCell id="G4uQYzGirpi4hmAw0lq7-17" value="" style="whiteSpace=wrap;html=1;aspect=fixed;" vertex="1" parent="1">
          <mxGeometry x="330" y="280" width="200" height="200" as="geometry" />
        </mxCell>
        <mxCell id="G4uQYzGirpi4hmAw0lq7-18" value="&lt;font style=&quot;font-size: 24px;&quot;&gt;Webflow&amp;nbsp;&lt;/font&gt;" style="text;html=1;align=center;verticalAlign=middle;whiteSpace=wrap;rounded=0;" vertex="1" parent="1">
          <mxGeometry x="345" y="280" width="170" height="70" as="geometry" />
        </mxCell>
        <mxCell id="G4uQYzGirpi4hmAw0lq7-19" value="" style="endArrow=classic;html=1;rounded=0;" edge="1" parent="1">
          <mxGeometry width="50" height="50" relative="1" as="geometry">
            <mxPoint x="550" y="240" as="sourcePoint" />
            <mxPoint x="520" y="270" as="targetPoint" />
          </mxGeometry>
        </mxCell>
        <mxCell id="G4uQYzGirpi4hmAw0lq7-20" value="React app embed" style="ellipse;whiteSpace=wrap;html=1;aspect=fixed;" vertex="1" parent="1">
          <mxGeometry x="390" y="340" width="80" height="80" as="geometry" />
        </mxCell>
      </root>
    </mxGraphModel>
  </diagram>
</mxfile>
